<svg width="40" height="44" viewBox="0 0 40 44" fill="none" xmlns="http://www.w3.org/2000/svg">
<path d="M39.5 21C39.5 32.3451 30.7468 41.5 20 41.5C9.25316 41.5 0.5 32.3451 0.5 21C0.5 9.65489 9.25316 0.5 20 0.5C30.7468 0.5 39.5 9.65489 39.5 21Z" fill="#252222" stroke="white"/>
<g filter="url(#filter0_d_47_5)">
<path d="M27.0828 8.38851C27.0828 8.18435 27.0082 7.98855 26.8754 7.84419C26.7425 7.69982 26.5624 7.61872 26.3745 7.61872H22.8328C21.0494 7.52218 19.3034 8.19666 17.9761 9.49481C16.6489 10.793 15.8484 12.6092 15.7495 14.5468V18.7036H12.2078C12.02 18.7036 11.8398 18.7847 11.707 18.9291C11.5741 19.0735 11.4995 19.2693 11.4995 19.4734V23.4763C11.4995 23.6805 11.5741 23.8763 11.707 24.0206C11.8398 24.165 12.02 24.2461 12.2078 24.2461H15.7495V34.5612C15.7495 34.7654 15.8241 34.9612 15.957 35.1056C16.0898 35.2499 16.27 35.331 16.4578 35.331H20.7078C20.8957 35.331 21.0759 35.2499 21.2087 35.1056C21.3416 34.9612 21.4162 34.7654 21.4162 34.5612V24.2461H25.1278C25.2854 24.2486 25.4391 24.1939 25.5649 24.0907C25.6906 23.9876 25.7811 23.8418 25.822 23.6765L26.842 19.6736C26.8702 19.5598 26.874 19.4406 26.8531 19.325C26.8322 19.2094 26.7872 19.1006 26.7215 19.0069C26.6558 18.9132 26.5712 18.8371 26.4742 18.7846C26.3772 18.732 26.2704 18.7043 26.162 18.7036H21.4162V14.5468C21.4514 14.1657 21.6161 13.8126 21.878 13.5564C22.14 13.3002 22.4804 13.1593 22.8328 13.1612H26.3745C26.5624 13.1612 26.7425 13.0801 26.8754 12.9357C27.0082 12.7914 27.0828 12.5956 27.0828 12.3914V8.38851Z" fill="white"/>
</g>
<defs>
<filter id="filter0_d_47_5" x="7.49951" y="7.60962" width="23.5833" height="35.7214" filterUnits="userSpaceOnUse" color-interpolation-filters="sRGB">
<feFlood flood-opacity="0" result="BackgroundImageFix"/>
<feColorMatrix in="SourceAlpha" type="matrix" values="0 0 0 0 0 0 0 0 0 0 0 0 0 0 0 0 0 0 127 0" result="hardAlpha"/>
<feOffset dy="4"/>
<feGaussianBlur stdDeviation="2"/>
<feComposite in2="hardAlpha" operator="out"/>
<feColorMatrix type="matrix" values="0 0 0 0 0 0 0 0 0 0 0 0 0 0 0 0 0 0 0.25 0"/>
<feBlend mode="normal" in2="BackgroundImageFix" result="effect1_dropShadow_47_5"/>
<feBlend mode="normal" in="SourceGraphic" in2="effect1_dropShadow_47_5" result="shape"/>
</filter>
</defs>
</svg>
