<svg width="208" height="43" viewBox="0 0 208 43" fill="none" xmlns="http://www.w3.org/2000/svg">
<line y1="40.5" x2="35.0143" y2="40.5" stroke="#FF5A5A" stroke-width="2"/>
<path d="M19.1071 23.325L17.6321 25.025L14.9071 22.65C13.3904 23.8333 11.6404 24.425 9.65708 24.425C7.22375 24.425 5.20708 23.6 3.60708 21.95C2.02375 20.2667 1.23208 18.1667 1.23208 15.65C1.23208 13.1333 2.02375 11.0417 3.60708 9.375C5.20708 7.725 7.22375 6.9 9.65708 6.9C12.1071 6.9 14.1154 7.73333 15.6821 9.4C17.2821 11.05 18.0821 13.1333 18.0821 15.65C18.0821 17.6667 17.5404 19.4583 16.4571 21.025L19.1071 23.325ZM3.73208 15.65C3.73208 17.7 4.28208 19.375 5.38208 20.675C6.48208 21.9583 7.90708 22.6 9.65708 22.6C11.3904 22.6 12.8071 21.9583 13.9071 20.675C15.0237 19.4083 15.5821 17.7667 15.5821 15.75C15.5821 13.65 15.0321 11.9583 13.9321 10.675C12.8487 9.375 11.4237 8.725 9.65708 8.725C7.90708 8.725 6.48208 9.375 5.38208 10.675C4.28208 11.9583 3.73208 13.6167 3.73208 15.65ZM21.6627 20.1V12.825H23.6627V19.625C23.6627 20.6917 23.8294 21.4583 24.1627 21.925C24.5127 22.375 25.0877 22.6 25.8877 22.6C26.9544 22.6 27.8044 22.2083 28.4377 21.425C28.8211 20.9083 29.0127 20.2167 29.0127 19.35V12.825H31.0127V24H29.0127V22.475C28.3794 23.1583 27.7711 23.6417 27.1877 23.925C26.6211 24.2083 25.9627 24.35 25.2127 24.35C24.0627 24.35 23.1794 23.9917 22.5627 23.275C21.9627 22.5417 21.6627 21.4833 21.6627 20.1ZM36.8063 9.5H34.8063V7.325H36.8063V9.5ZM36.8063 24H34.8063V12.825H36.8063V24ZM48.4762 19.7L50.6012 19.925C50.0179 22.8583 48.2929 24.325 45.4262 24.325C43.7929 24.325 42.4679 23.775 41.4512 22.675C40.4512 21.5583 39.9512 20.1083 39.9512 18.325C39.9512 16.6083 40.4512 15.2083 41.4512 14.125C42.4679 13.025 43.7596 12.475 45.3262 12.475C46.6429 12.475 47.7346 12.8167 48.6012 13.5C49.4846 14.1667 50.0929 15.1333 50.4262 16.4L48.2762 16.575C47.9762 14.8417 47.0012 13.975 45.3512 13.975C44.3179 13.975 43.5012 14.375 42.9012 15.175C42.3179 15.975 42.0262 17.0583 42.0262 18.425C42.0262 19.7417 42.3346 20.7917 42.9512 21.575C43.5846 22.3583 44.4262 22.75 45.4762 22.75C46.6096 22.75 47.4262 22.3333 47.9262 21.5C48.1429 21.15 48.3262 20.55 48.4762 19.7ZM55.2809 24H53.2809V7.325H55.2809V17.575L59.6059 12.825H62.0309L57.9309 17.25L63.0559 24H60.5309L56.6309 18.675L55.2809 20.1V24ZM82.4579 24H71.8579V7.325H74.1579V22H82.4579V24ZM86.9235 9.5H84.9235V7.325H86.9235V9.5ZM86.9235 24H84.9235V12.825H86.9235V24ZM92.7184 24H90.7184V12.825H92.7184V14.125C93.2684 13.525 93.7934 13.1083 94.2934 12.875C94.7934 12.625 95.4017 12.5 96.1184 12.5C97.3851 12.5 98.3601 12.8667 99.0434 13.6C99.7267 14.3333 100.068 15.375 100.068 16.725V24H98.0684V17.2C98.0684 16.2 97.9101 15.4917 97.5934 15.075C97.1934 14.525 96.5434 14.25 95.6434 14.25C94.5767 14.25 93.7684 14.6417 93.2184 15.425C92.8851 15.9083 92.7184 16.5917 92.7184 17.475V24ZM105.862 24H103.862V7.325H105.862V17.575L110.187 12.825H112.612L108.512 17.25L113.637 24H111.112L107.212 18.675L105.862 20.1V24ZM114.586 20.425L116.811 20.05C116.861 20.9667 117.044 21.6083 117.361 21.975C117.828 22.5417 118.653 22.825 119.836 22.825C120.669 22.825 121.311 22.6667 121.761 22.35C122.228 22.0167 122.461 21.5583 122.461 20.975C122.461 20.5417 122.328 20.2083 122.061 19.975C121.794 19.7417 121.328 19.55 120.661 19.4L118.636 18.95C117.369 18.6667 116.478 18.3167 115.961 17.9C115.311 17.4 114.986 16.7167 114.986 15.85C114.986 14.8833 115.403 14.0833 116.236 13.45C117.103 12.8167 118.161 12.5 119.411 12.5C120.761 12.5 121.861 12.8333 122.711 13.5C123.561 14.15 124.061 15.0417 124.211 16.175L122.136 16.425C122.119 14.8083 121.186 14 119.336 14C118.653 14 118.103 14.15 117.686 14.45C117.269 14.75 117.061 15.1417 117.061 15.625C117.061 16.025 117.219 16.3333 117.536 16.55C117.853 16.7667 118.461 16.9917 119.361 17.225L121.661 17.8C123.578 18.2667 124.536 19.2583 124.536 20.775C124.536 21.8083 124.078 22.6583 123.161 23.325C122.244 23.9917 121.069 24.325 119.636 24.325C118.186 24.325 117.003 23.975 116.086 23.275C115.186 22.575 114.686 21.625 114.586 20.425Z" fill="#FF3A3A"/>
</svg>
