<svg width="208" height="41" viewBox="0 0 208 41" fill="none" xmlns="http://www.w3.org/2000/svg">
<line y1="40" x2="35.0143" y2="40" stroke="#FF5A5A" stroke-width="2"/>
<path d="M15 17.95L17.45 18.325C17.1333 19.2583 16.8167 20.0083 16.5 20.575C16.1833 21.1417 15.7667 21.6833 15.25 22.2C13.7667 23.6833 11.8583 24.425 9.525 24.425C6.99167 24.425 4.975 23.65 3.475 22.1C1.975 20.55 1.225 18.4667 1.225 15.85C1.225 13.15 1.975 10.9833 3.475 9.35C5.00833 7.71667 7.025 6.9 9.525 6.9C11.9917 6.9 13.9583 7.63333 15.425 9.1C16.1917 9.85 16.825 10.9333 17.325 12.35L14.925 12.725C14.575 11.6083 14.075 10.7417 13.425 10.125C12.3917 9.19167 11.1 8.725 9.55 8.725C7.73333 8.725 6.30833 9.34167 5.275 10.575C4.24167 11.7917 3.725 13.4833 3.725 15.65C3.725 17.8167 4.25 19.5167 5.3 20.75C6.36667 21.9833 7.825 22.6 9.675 22.6C11.3917 22.6 12.7083 22.0167 13.625 20.85C14.175 20.1667 14.6333 19.2 15 17.95ZM19.7361 18.425C19.7361 16.6583 20.2445 15.2333 21.2611 14.15C22.2945 13.05 23.6278 12.5 25.2611 12.5C26.8945 12.5 28.2278 13.05 29.2611 14.15C30.2778 15.2333 30.7861 16.675 30.7861 18.475C30.7861 20.175 30.2695 21.5833 29.2361 22.7C28.2028 23.7833 26.8778 24.325 25.2611 24.325C23.6278 24.325 22.2945 23.775 21.2611 22.675C20.2445 21.5917 19.7361 20.175 19.7361 18.425ZM21.8111 18.4C21.8111 19.7667 22.1111 20.8333 22.7111 21.6C23.3278 22.3667 24.1778 22.75 25.2611 22.75C26.3278 22.75 27.1695 22.375 27.7861 21.625C28.4028 20.8583 28.7111 19.8083 28.7111 18.475C28.7111 17.0917 28.4028 16.0167 27.7861 15.25C27.1861 14.4667 26.3445 14.075 25.2611 14.075C24.1778 14.075 23.3278 14.4583 22.7111 15.225C22.1111 15.9917 21.8111 17.05 21.8111 18.4ZM35.9691 24H33.9691V12.825H35.9691V14.125C36.5191 13.525 37.0441 13.1083 37.5441 12.875C38.0441 12.625 38.6525 12.5 39.3691 12.5C40.6358 12.5 41.6108 12.8667 42.2941 13.6C42.9775 14.3333 43.3191 15.375 43.3191 16.725V24H41.3191V17.2C41.3191 16.2 41.1608 15.4917 40.8441 15.075C40.4441 14.525 39.7941 14.25 38.8941 14.25C37.8275 14.25 37.0191 14.6417 36.4691 15.425C36.1358 15.9083 35.9691 16.5917 35.9691 17.475V24ZM47.3127 22.125V14.5H45.5127V12.825H47.3127V9.3H49.3127V12.825H51.3127V14.5H49.3127V21.525C49.3127 21.9583 49.3627 22.2417 49.4627 22.375C49.5627 22.5083 49.771 22.575 50.0877 22.575C50.3044 22.575 50.746 22.5083 51.4127 22.375V24C50.6794 24.1667 50.0127 24.25 49.4127 24.25C48.6294 24.25 48.0794 24.1 47.7627 23.8C47.4627 23.4833 47.3127 22.925 47.3127 22.125ZM64.1498 22.475V24C63.6998 24.1167 63.2998 24.175 62.9498 24.175C62.3998 24.175 61.9581 24.0583 61.6248 23.825C61.3081 23.5917 61.0581 23.2083 60.8748 22.675C60.2748 23.275 59.6915 23.7 59.1248 23.95C58.5748 24.2 57.9331 24.325 57.1998 24.325C56.0998 24.325 55.2081 24.0333 54.5248 23.45C53.8581 22.8667 53.5248 22.1 53.5248 21.15C53.5248 20.5667 53.6665 20.0333 53.9498 19.55C54.2498 19.05 54.6581 18.6667 55.1748 18.4C55.9581 17.9833 57.0998 17.7 58.5998 17.55L60.6998 17.35V16.3C60.6998 15.5833 60.4998 15.0333 60.0998 14.65C59.6998 14.2667 59.1331 14.075 58.3998 14.075C57.6998 14.075 57.1498 14.25 56.7498 14.6C56.3498 14.95 56.1498 15.425 56.1498 16.025C56.1498 16.2083 56.1581 16.3333 56.1748 16.4L54.0498 16.3C54.3831 13.7667 55.8248 12.5 58.3748 12.5C59.7415 12.5 60.8165 12.8333 61.5998 13.5C62.3331 14.1 62.6998 15.1333 62.6998 16.6V20.725C62.6998 21.475 62.7581 21.975 62.8748 22.225C62.9915 22.475 63.2165 22.6 63.5498 22.6C63.6665 22.6 63.8665 22.5583 64.1498 22.475ZM55.5998 21.125C55.5998 21.625 55.7748 22.025 56.1248 22.325C56.4915 22.6083 56.9831 22.75 57.5998 22.75C58.2498 22.75 58.8331 22.5833 59.3498 22.25C59.8831 21.9 60.2665 21.4417 60.4998 20.875C60.6331 20.475 60.6998 19.7417 60.6998 18.675C58.6665 18.9583 57.3081 19.2667 56.6248 19.6C55.9415 19.9333 55.5998 20.4417 55.5998 21.125ZM74.4389 19.7L76.5639 19.925C75.9805 22.8583 74.2555 24.325 71.3889 24.325C69.7555 24.325 68.4305 23.775 67.4139 22.675C66.4139 21.5583 65.9139 20.1083 65.9139 18.325C65.9139 16.6083 66.4139 15.2083 67.4139 14.125C68.4305 13.025 69.7222 12.475 71.2889 12.475C72.6055 12.475 73.6972 12.8167 74.5639 13.5C75.4472 14.1667 76.0555 15.1333 76.3889 16.4L74.2389 16.575C73.9389 14.8417 72.9639 13.975 71.3139 13.975C70.2805 13.975 69.4639 14.375 68.8639 15.175C68.2805 15.975 67.9889 17.0583 67.9889 18.425C67.9889 19.7417 68.2972 20.7917 68.9139 21.575C69.5472 22.3583 70.3889 22.75 71.4389 22.75C72.5722 22.75 73.3889 22.3333 73.8889 21.5C74.1055 21.15 74.2889 20.55 74.4389 19.7ZM79.5412 22.125V14.5H77.7412V12.825H79.5412V9.3H81.5412V12.825H83.5412V14.5H81.5412V21.525C81.5412 21.9583 81.5912 22.2417 81.6912 22.375C81.7912 22.5083 81.9995 22.575 82.3162 22.575C82.5329 22.575 82.9745 22.5083 83.6412 22.375V24C82.9079 24.1667 82.2412 24.25 81.6412 24.25C80.8579 24.25 80.3079 24.1 79.9912 23.8C79.6912 23.4833 79.5412 22.925 79.5412 22.125Z" fill="#FF3A3A"/>
</svg>
