<svg width="40" height="42" viewBox="0 0 40 42" fill="none" xmlns="http://www.w3.org/2000/svg">
<path d="M39.5 21C39.5 32.3451 30.7468 41.5 20 41.5C9.25316 41.5 0.5 32.3451 0.5 21C0.5 9.65489 9.25316 0.5 20 0.5C30.7468 0.5 39.5 9.65489 39.5 21Z" fill="#252222" stroke="white"/>
<g filter="url(#filter0_d_47_3)">
<path d="M24.342 10H14.658C11.5332 10 9 12.6392 9 15.8947V25.984C9 29.2395 11.5332 31.8787 14.658 31.8787H24.342C27.4668 31.8787 30 29.2395 30 25.984V15.8947C30 12.6392 27.4669 10 24.342 10Z" stroke="white" stroke-width="2" stroke-miterlimit="10"/>
<path d="M19.5001 26.2204C22.2997 26.2204 24.5691 23.8559 24.5691 20.9393C24.5691 18.0226 22.2997 15.6582 19.5001 15.6582C16.7006 15.6582 14.4312 18.0226 14.4312 20.9393C14.4312 23.8559 16.7006 26.2204 19.5001 26.2204Z" stroke="white" stroke-width="2" stroke-miterlimit="10"/>
<path d="M25.6556 15.6584C26.2555 15.6584 26.7418 15.1517 26.7418 14.5267C26.7418 13.9017 26.2555 13.395 25.6556 13.395C25.0557 13.395 24.5693 13.9017 24.5693 14.5267C24.5693 15.1517 25.0557 15.6584 25.6556 15.6584Z" fill="white"/>
</g>
<defs>
<filter id="filter0_d_47_3" x="4" y="9" width="31" height="31.8787" filterUnits="userSpaceOnUse" color-interpolation-filters="sRGB">
<feFlood flood-opacity="0" result="BackgroundImageFix"/>
<feColorMatrix in="SourceAlpha" type="matrix" values="0 0 0 0 0 0 0 0 0 0 0 0 0 0 0 0 0 0 127 0" result="hardAlpha"/>
<feOffset dy="4"/>
<feGaussianBlur stdDeviation="2"/>
<feComposite in2="hardAlpha" operator="out"/>
<feColorMatrix type="matrix" values="0 0 0 0 0 0 0 0 0 0 0 0 0 0 0 0 0 0 0.25 0"/>
<feBlend mode="normal" in2="BackgroundImageFix" result="effect1_dropShadow_47_3"/>
<feBlend mode="normal" in="SourceGraphic" in2="effect1_dropShadow_47_3" result="shape"/>
</filter>
</defs>
</svg>
