<svg width="20" height="20" viewBox="0 0 20 20" fill="none" xmlns="http://www.w3.org/2000/svg">
<path d="M0 2.54557C0 1.89906 0.210714 1.27903 0.585786 0.821885C0.960859 0.364734 1.46957 0.10791 2 0.10791H18C18.5304 0.10791 19.0391 0.364734 19.4142 0.821885C19.7893 1.27903 20 1.89906 20 2.54557V17.1715C20 17.8181 19.7893 18.4381 19.4142 18.8952C19.0391 19.3524 18.5304 19.6092 18 19.6092H2C1.46957 19.6092 0.960859 19.3524 0.585786 18.8952C0.210714 18.4381 0 17.8181 0 17.1715V2.54557ZM3.519 2.54557L10 9.45756L16.481 2.54557H3.519ZM18 4.1654L10.659 11.9952C10.4766 12.1899 10.2424 12.2973 10 12.2973C9.75755 12.2973 9.52336 12.1899 9.341 11.9952L2 4.1654V17.1715H18V4.1654Z" fill="white"/>
</svg>
