<svg width="20" height="22" viewBox="0 0 20 22" fill="none" xmlns="http://www.w3.org/2000/svg">
<path d="M18.0404 14.8881L15.2125 14.5401C14.5333 14.4561 13.8653 14.7081 13.3866 15.2241L11.338 17.4318C8.18723 15.704 5.60425 12.9323 4.00102 9.52468L6.06073 7.30492C6.53947 6.78898 6.77327 6.06906 6.69534 5.33714L6.37246 2.31347C6.23886 1.1016 5.29251 0.189697 4.15689 0.189697H2.23079C0.972706 0.189697 -0.0738448 1.31757 0.00408987 2.67343C0.594166 12.9203 8.19836 21.1034 17.6953 21.7394C18.9533 21.8233 19.9999 20.6955 19.9999 19.3396V17.2638C20.011 16.052 19.1649 15.0321 18.0404 14.8881Z" fill="white"/>
</svg>
