<svg width="56" height="64" viewBox="0 0 56 64" fill="none" xmlns="http://www.w3.org/2000/svg">
<path d="M47.7816 51.407L39.9372 42.4475C42.4682 38.7538 43.8414 34.1926 43.8363 29.4971C43.8363 25.3153 42.7538 21.2274 40.7257 17.7504C38.6976 14.2733 35.815 11.5633 32.4423 9.96301C29.0697 8.36271 25.3585 7.944 21.7781 8.75982C18.1978 9.57565 14.909 11.5894 12.3277 14.5463C9.74637 17.5033 7.98847 21.2707 7.27629 25.3722C6.56411 29.4736 6.92963 33.7249 8.32662 37.5883C9.72362 41.4518 12.0893 44.754 15.1246 47.0772C18.1599 49.4005 21.7285 50.6406 25.379 50.6406C29.478 50.6464 33.4598 49.0733 36.6841 46.174L44.5054 55.16C44.7199 55.4077 44.9751 55.6043 45.2562 55.7385C45.5374 55.8727 45.8389 55.9418 46.1435 55.9418C46.4481 55.9418 46.7497 55.8727 47.0308 55.7385C47.312 55.6043 47.5671 55.4077 47.7816 55.16C47.9979 54.9143 48.1695 54.622 48.2866 54.2999C48.4038 53.9779 48.4641 53.6324 48.4641 53.2835C48.4641 52.9346 48.4038 52.5892 48.2866 52.2671C48.1695 51.945 47.9979 51.6527 47.7816 51.407ZM11.536 29.4971C11.536 26.3607 12.3479 23.2948 13.8689 20.687C15.39 18.0793 17.552 16.0467 20.0815 14.8465C22.611 13.6463 25.3944 13.3323 28.0796 13.9441C30.7649 14.556 33.2315 16.0663 35.1675 18.284C37.1035 20.5018 38.4219 23.3273 38.956 26.4034C39.4902 29.4795 39.216 32.6679 38.1683 35.5655C37.1205 38.4631 35.3462 40.9397 33.0698 42.6822C30.7933 44.4247 28.1169 45.3547 25.379 45.3547C21.7076 45.3547 18.1866 43.684 15.5905 40.7101C12.9944 37.7362 11.536 33.7028 11.536 29.4971Z" fill="white"/>
</svg>
