<svg width="213" height="43" viewBox="0 0 213 43" fill="none" xmlns="http://www.w3.org/2000/svg">
<rect y="2" width="211" height="41" rx="20.5" fill="#9B0B0B"/>
<path d="M172.36 15.36H176.68L183.58 22.17L176.68 28.98H172.36L179.29 22.17L172.36 15.36Z" fill="white"/>
<path d="M38.89 29.133C37.9653 29.133 37.1293 28.9747 36.382 28.658C35.6473 28.3413 35.0647 27.8853 34.634 27.29C34.2033 26.6947 33.9817 25.9917 33.969 25.181H36.819C36.857 25.7257 37.047 26.1563 37.389 26.473C37.7437 26.7897 38.225 26.948 38.833 26.948C39.4537 26.948 39.9413 26.8023 40.296 26.511C40.6507 26.207 40.828 25.8143 40.828 25.333C40.828 24.9403 40.7077 24.6173 40.467 24.364C40.2263 24.1107 39.9223 23.9143 39.555 23.775C39.2003 23.623 38.7063 23.4583 38.073 23.281C37.2117 23.0277 36.5087 22.7807 35.964 22.54C35.432 22.2867 34.9697 21.913 34.577 21.419C34.197 20.9123 34.007 20.241 34.007 19.405C34.007 18.6197 34.2033 17.9357 34.596 17.353C34.9887 16.7703 35.5397 16.327 36.249 16.023C36.9583 15.7063 37.769 15.548 38.681 15.548C40.049 15.548 41.1573 15.8837 42.006 16.555C42.8673 17.2137 43.3423 18.1383 43.431 19.329H40.505C40.4797 18.873 40.2833 18.4993 39.916 18.208C39.5613 17.904 39.0863 17.752 38.491 17.752C37.9717 17.752 37.5537 17.885 37.237 18.151C36.933 18.417 36.781 18.8033 36.781 19.31C36.781 19.6647 36.895 19.9623 37.123 20.203C37.3637 20.431 37.655 20.621 37.997 20.773C38.3517 20.9123 38.8457 21.077 39.479 21.267C40.3403 21.5203 41.0433 21.7737 41.588 22.027C42.1327 22.2803 42.6013 22.6603 42.994 23.167C43.3867 23.6737 43.583 24.3387 43.583 25.162C43.583 25.8713 43.3993 26.53 43.032 27.138C42.6647 27.746 42.1263 28.2337 41.417 28.601C40.7077 28.9557 39.8653 29.133 38.89 29.133ZM48.8341 17.885V21.21H53.2991V23.319H48.8341V26.834H53.8691V29H46.1741V15.719H53.8691V17.885H48.8341ZM67.9144 29H65.2544L59.2314 19.899V29H56.5714V15.719H59.2314L65.2544 24.839V15.719H67.9144V29ZM75.4641 15.738C76.8574 15.738 78.0798 16.0103 79.1311 16.555C80.1951 17.0997 81.0121 17.8787 81.5821 18.892C82.1648 19.8927 82.4561 21.058 82.4561 22.388C82.4561 23.718 82.1648 24.8833 81.5821 25.884C81.0121 26.872 80.1951 27.6383 79.1311 28.183C78.0798 28.7277 76.8574 29 75.4641 29H70.8281V15.738H75.4641ZM75.3691 26.739C76.7624 26.739 77.8391 26.359 78.5991 25.599C79.3591 24.839 79.7391 23.7687 79.7391 22.388C79.7391 21.0073 79.3591 19.9307 78.5991 19.158C77.8391 18.3727 76.7624 17.98 75.3691 17.98H73.4881V26.739H75.3691ZM92.2046 17.885V21.21H96.6696V23.319H92.2046V26.834H97.2396V29H89.5446V15.719H97.2396V17.885H92.2046ZM114.401 15.738V29H111.741V20.374L108.188 29H106.174L102.602 20.374V29H99.9419V15.738H102.963L107.181 25.599L111.399 15.738H114.401ZM125.448 26.473H120.166L119.292 29H116.499L121.268 15.719H124.365L129.134 29H126.322L125.448 26.473ZM124.726 24.345L122.807 18.797L120.888 24.345H124.726ZM133.861 15.738V29H131.201V15.738H133.861ZM139.434 26.891H143.804V29H136.774V15.738H139.434V26.891Z" fill="white"/>
</svg>
